<svg width="16" height="16" viewBox="0 0 16 16" xmlns="http://www.w3.org/2000/svg">
  <defs>
    <radialGradient id="nodeGlow" cx="50%" cy="50%" r="50%">
      <stop offset="0%" style="stop-color:#22c55e;stop-opacity:1" />
      <stop offset="100%" style="stop-color:#22c55e;stop-opacity:0" />
    </radialGradient>
  </defs>
  <!-- Gear shape -->
  <path d="M8,5.5 A2.5,2.5 0 1,0 8,10.5 A2.5,2.5 0 1,0 8,5.5 M8,1 L9,1 L9.5,3 A5,5 0 0,1 11.5,3.8 L13,2.8 L13.8,3.6 L12.8,5.1 A5,5 0 0,1 13.6,7.1 L15.6,7.6 L15.6,8.6 L13.6,9.1 A5,5 0 0,1 12.8,11.1 L13.8,12.6 L13,13.4 L11.5,12.4 A5,5 0 0,1 9.5,13.2 L9,15.2 L8,15.2 L7.5,13.2 A5,5 0 0,1 5.5,12.4 L4,13.4 L3.2,12.6 L4.2,11.1 A5,5 0 0,1 3.4,9.1 L1.4,8.6 L1.4,7.6 L3.4,7.1 A5,5 0 0,1 4.2,5.1 L3.2,3.6 L4,2.8 L5.5,3.8 A5,5 0 0,1 7.5,3 L8,1" fill="#64748b" />
  <!-- Central node -->
  <circle cx="8" cy="8" r="3" fill="url(#nodeGlow)" opacity="0.6" />
  <circle cx="8" cy="8" r="1.5" fill="#22c55e" />
</svg>
